<svg width="49" height="49" viewBox="0 0 49 49" fill="none" xmlns="http://www.w3.org/2000/svg">
<circle cx="24.5" cy="24.5" r="24.5" fill="#1E1E1E"/>
<g clip-path="url(#clip0_65_787)">
<path d="M31.1183 28.6667C30.6505 28.6684 30.188 28.7647 29.7584 28.9497C29.3288 29.1346 28.941 29.4045 28.6183 29.7431L20.153 25.5069C20.3612 24.8755 20.3612 24.1939 20.153 23.5625L28.6321 19.25C29.2395 19.89 30.0631 20.2814 30.9429 20.348C31.8227 20.4145 32.6959 20.1516 33.3926 19.6103C34.0894 19.069 34.56 18.288 34.713 17.419C34.866 16.5501 34.6904 15.6553 34.2204 14.9086C33.7504 14.1618 33.0196 13.6165 32.1699 13.3787C31.3203 13.1408 30.4125 13.2273 29.6231 13.6214C28.8337 14.0155 28.219 14.689 27.8985 15.5111C27.5781 16.3332 27.5747 17.245 27.8891 18.0694L19.4933 22.3403C19.0398 21.7857 18.426 21.385 17.7358 21.193C17.0457 21.001 16.3131 21.0272 15.6384 21.2679C14.9637 21.5086 14.38 21.9521 13.9673 22.5376C13.5546 23.1231 13.333 23.8219 13.333 24.5382C13.333 25.2545 13.5546 25.9533 13.9673 26.5388C14.38 27.1243 14.9637 27.5678 15.6384 27.8085C16.3131 28.0492 17.0457 28.0754 17.7358 27.8834C18.426 27.6914 19.0398 27.2907 19.4933 26.7361L27.8683 30.9514C27.7267 31.3313 27.6539 31.7334 27.653 32.1389C27.653 32.8256 27.8566 33.4969 28.2382 34.0679C28.6197 34.639 29.162 35.084 29.7964 35.3468C30.4309 35.6096 31.1291 35.6784 31.8026 35.5444C32.4761 35.4104 33.0948 35.0797 33.5804 34.5941C34.066 34.1085 34.3967 33.4898 34.5307 32.8163C34.6647 32.1427 34.5959 31.4446 34.3331 30.8101C34.0703 30.1757 33.6253 29.6334 33.0543 29.2518C32.4833 28.8703 31.8119 28.6667 31.1252 28.6667H31.1183Z" fill="#F6F6F6"/>
</g>
<defs>
<clipPath id="clip0_65_787">
<rect width="25" height="25" fill="white" transform="translate(12 12)"/>
</clipPath>
</defs>
</svg>
