<svg width="26" height="19" viewBox="0 0 26 19" fill="none" xmlns="http://www.w3.org/2000/svg">
<path fill-rule="evenodd" clip-rule="evenodd" d="M0 1.1875C0 0.872555 0.128403 0.57051 0.356963 0.347811C0.585523 0.125111 0.895517 0 1.21875 0H24.7812C25.1045 0 25.4145 0.125111 25.643 0.347811C25.8716 0.57051 26 0.872555 26 1.1875C26 1.50244 25.8716 1.80449 25.643 2.02719C25.4145 2.24989 25.1045 2.375 24.7812 2.375H1.21875C0.895517 2.375 0.585523 2.24989 0.356963 2.02719C0.128403 1.80449 0 1.50244 0 1.1875ZM11.375 17.8125C11.375 17.4976 11.5034 17.1955 11.732 16.9728C11.9605 16.7501 12.2705 16.625 12.5938 16.625H24.7812C25.1045 16.625 25.4145 16.7501 25.643 16.9728C25.8716 17.1955 26 17.4976 26 17.8125C26 18.1274 25.8716 18.4295 25.643 18.6522C25.4145 18.8749 25.1045 19 24.7812 19H12.5938C12.2705 19 11.9605 18.8749 11.732 18.6522C11.5034 18.4295 11.375 18.1274 11.375 17.8125ZM0 9.5C0 9.18506 0.128403 8.88301 0.356963 8.66031C0.585523 8.43761 0.895517 8.3125 1.21875 8.3125H24.7812C25.1045 8.3125 25.4145 8.43761 25.643 8.66031C25.8716 8.88301 26 9.18506 26 9.5C26 9.81494 25.8716 10.117 25.643 10.3397C25.4145 10.5624 25.1045 10.6875 24.7812 10.6875H1.21875C0.895517 10.6875 0.585523 10.5624 0.356963 10.3397C0.128403 10.117 0 9.81494 0 9.5Z" fill="#1E1E1E"/>
</svg>
